pedal_clip_forces_x_-0.11_y_-0.05.mot
version=1
nRows=126
nColumns=4
inDegrees=yes
endheader
time	PedalClip_calcn_r_Fx	PedalClip_calcn_r_Fy	PedalClip_calcn_r_Fz
0	6.39954063084671	12.2648197373342	0
0.00111157	6.18401962676407	12.6342881075143	0
0.00549242	5.96883651964608	13.0001467451271	0
0.00987326	5.75399258030816	13.3623958899431	0
0.0142541	5.53948911943247	13.7210357907794	0
0.01759449	5.32532748868871	14.0760667084888	0
0.02093488	5.11150908186104	14.4274889196652	0
0.02532171	4.89803533597953	14.7753039038789	0
0.02715686	4.68490773245346	15.1195178404235	0
0.03092348	4.47212785881525	15.4601369725568	0
0.03311639	4.259697573977	15.7971635246927	0
0.03603168	4.04761889556976	16.130598799153	0
0.037568	3.83589420527048	16.4604441917654	0
0.0400732	3.62452596509151	16.7867012037886	0
0.0417456	3.41351687378193	17.109371454729	0
0.04375933	3.20286975370342	17.4284566961783	0
0.04531124	2.99258697069846	17.7439588268316	0
0.04681715	2.78267058050897	18.0558799088663	0
0.04818598	2.57312212242563	18.3642221859121	0
0.04985851	2.36394267881868	18.6689881028749	0
0.05128202	2.15513297613284	18.9701803279373	0
0.05292818	1.94669333642139	19.2678017771132	0
0.0540692	1.73862384016978	19.5618556418139	0
0.05560801	1.53092432285937	19.8523454199668	0
0.05663649	1.32359442614747	20.1392749513327	0
0.05794308	1.11663365854081	20.4226484577901	0
0.0588912	0.9100413855977	20.7024705895121	0
0.0600506	0.703816903293308	20.9787464781265	0
0.06134995	0.497959377795129	21.2514817981796	0
0.06196945	0.292467785790991	21.5206828384707	0
0.06293303	0.0873406743099907	21.7863565851382	0
0.06382739	-0.117423744992826	22.0485108187431	0
0.06490698	-0.321827401763539	22.3071542280264	0
0.06732014	-0.525872339436118	22.5622965435027	0
0.06767979	-0.729560554050443	22.8139486945678	0
0.06825205	-0.932894074084836	23.0621229942635	0
0.06953678	-1.13587494871821	23.3068333560554	0
0.06975741	-1.33850514738716	23.548095546479	0
0.07010081	-1.54078651507026	23.7859274752445	0
0.07148375	-1.74272054052934	24.020349517998	0
0.07249102	-1.94430778376376	24.2513852145155	0
0.07259175	-2.1455480281377	24.4790627509831	0
0.07283328	-2.34644018212542	24.70341461668	0
0.0735436	-2.54698198780904	24.9244784113405	0
0.07395763	-2.74716979233987	25.1422944121096	0
0.07445234	-2.94699860292131	25.3569001007937	0
0.07535316	-3.14646116432188	25.5683189556924	0
0.07625399	-3.34554694757598	25.7765297234255	0
0.07668154	-3.54424053355532	25.9813870219185	0
0.07727869	-3.74251926059724	26.182423209587	0
0.07794484	-3.94036398713406	26.3720324503758	0
0.078611	-4.13781670931294	26.5572176840191	0
0.07898599	-4.33488304628689	26.7375515704833	0
0.07946184	-4.53155208490272	26.9130138765208	0
0.08016583	-4.72779969021533	27.0842154698869	0
0.08086981	-4.9235947138034	27.2522714123237	0
0.08122559	-5.11890496307396	27.4182840076618	0
0.0817127	-5.31370482908137	27.5828553672148	0
0.08234129	-5.50798718030793	27.746199830374	0
0.08296988	-5.70175746733231	27.9081890648128	0
0.08315368	-5.89501259157394	28.0687494598736	0
0.08357152	-6.08774756286097	28.2278546964299	0
0.08425924	-6.27995660874122	28.3855045928239	0
0.08494695	-6.47164248664515	28.5417552733588	0
0.08525468	-6.66281109443482	28.6966992413518	0
0.08565242	-6.85346963492168	28.8504412771585	0
0.08626436	-7.04363770659012	29.003064620083	0
0.0868763	-7.23332419965274	29.1545840045442	0
0.0872067	-7.4225329218496	29.3049961620189	0
0.08758698	-7.61126223545919	29.4543494418655	0
0.08816884	-7.7995055282287	29.6027783239115	0
0.0887507	-7.98725000974328	29.7504380597853	0
0.08910681	-8.17447343978644	29.8974466068587	0
0.08948085	-8.36114130103757	30.0438556617857	0
0.09002535	-8.54721696087779	30.1896902448541	0
0.09056984	-8.73265557120415	30.3349950281101	0
0.09094913	-8.91742407364456	30.4798164261299	0
0.09131868	-9.1014958669254	30.6241880997784	0
0.09183121	-9.2848649494459	30.7681194560648	0
0.09234375	-9.46753682092833	30.9116220437713	0
0.09279304	-9.64953482761745	31.054734693095	0
0.09383308	-9.83088726524792	31.197547835211	0
0.09393709	-10.0116069507236	31.3401883104304	0
0.09418123	-10.1916898268365	31.4828070887073	0
0.09504747	-10.3711171235776	31.6255505534599	0
0.09517044	-10.5498727126449	31.7685682707137	0
0.09543002	-10.7279474726128	31.9120204908114	0
0.09586837	-10.9053342477212	32.056046367903	0
0.09623292	-11.0820253891303	32.200720207495	0
0.09671326	-11.258019451255	32.3459975404116	0
0.0971936	-11.4332970788428	32.4917147204015	0
0.09729731	-11.6078327230901	32.637729653819	0
0.09752088	-11.7816019785729	32.7838686647412	0
0.09822578	-11.9545682770529	32.929975813712	0
0.09850747	-12.1266537442188	33.0759999444151	0
0.09889576	-12.2978150355113	33.2218726845331	0
0.09923576	-12.4680350007308	33.3674879196314	0
0.0996531	-12.6372884216688	33.5127612900746	0
0.10001766	-12.8056111073088	33.6576371019788	0
0.10012405	-12.9731011241925	33.8020857493674	0
0.10028576	-13.1398853918644	33.9461445927991	0
0.10093729	-13.3060780751235	34.089902717377	0
0.10106624	-13.4717377550446	34.2334711507771	0
0.10139277	-13.636952379591	34.3769338038425	0
0.10181323	-13.8018325279477	34.5203586289113	0
0.10216719	-13.9664912980797	34.6638414151072	0
0.10224643	-14.1309943937476	34.8074901770753	0
0.10238316	-14.2953547938331	34.9514183900615	0
0.10282003	-14.4596047584613	35.0957189046176	0
0.10299029	-14.62378643788	35.2404494001237	0
0.10327778	-14.7879059583267	35.3856341271087	0
0.10367574	-14.9519557398178	35.5313226483004	0
0.1040737	-15.1159310930221	35.6775872767958	0
0.1041135	-15.2798129429261	35.824508276558	0
0.10426653	-15.4434833745245	35.9721716324617	0
0.10451477	-15.6068009455161	36.1206805827086	0
0.10463053	-15.7697019516667	36.2701250528613	0
0.10495961	-15.9322054009051	36.4205589681867	0
0.1053172	-16.094329767614	36.5719674253143	0
0.10544292	-16.2560886755683	36.7243162103064	0
0.10567496	-16.4174576615125	36.8776138820062	0
0.10605884	-16.5784874881758	37.0318793506065	0
0.10625078	-16.7392650739931	37.1870892409883	0
0.1067333	-16.8999845220054	37.3431740928476	0
0.10678647	-17.0609032165956	37.5000395781098	0
0.10694543	-17.2222731810854	37.6575839978711	0
